<mxfile host="app.diagrams.net" modified="2024-03-26T13:40:18.485Z" agent="Mozilla/5.0 (Windows NT 10.0; Win64; x64) AppleWebKit/537.36 (KHTML, like Gecko) Chrome/123.0.0.0 Safari/537.36" etag="5uGpif7McVqJEfKQap2t" version="24.1.0" type="device">
  <diagram name="Page-1" id="8WIy2GtfnYe-O7CcSraP">
    <mxGraphModel dx="1843" dy="807" grid="1" gridSize="10" guides="1" tooltips="1" connect="1" arrows="1" fold="1" page="1" pageScale="1" pageWidth="850" pageHeight="1100" math="0" shadow="0">
      <root>
        <mxCell id="0" />
        <mxCell id="1" parent="0" />
        <mxCell id="EHAEfVHOmfp6wVy67W4G-80" style="edgeStyle=orthogonalEdgeStyle;rounded=0;orthogonalLoop=1;jettySize=auto;html=1;exitX=0;exitY=0.5;exitDx=0;exitDy=0;entryX=1;entryY=1;entryDx=0;entryDy=0;" parent="1" source="EHAEfVHOmfp6wVy67W4G-1" target="EHAEfVHOmfp6wVy67W4G-6" edge="1">
          <mxGeometry relative="1" as="geometry" />
        </mxCell>
        <mxCell id="EHAEfVHOmfp6wVy67W4G-81" style="edgeStyle=orthogonalEdgeStyle;rounded=0;orthogonalLoop=1;jettySize=auto;html=1;exitX=0;exitY=1;exitDx=0;exitDy=0;entryX=1;entryY=0;entryDx=0;entryDy=0;" parent="1" source="EHAEfVHOmfp6wVy67W4G-1" target="EHAEfVHOmfp6wVy67W4G-7" edge="1">
          <mxGeometry relative="1" as="geometry" />
        </mxCell>
        <mxCell id="EHAEfVHOmfp6wVy67W4G-90" style="edgeStyle=orthogonalEdgeStyle;rounded=0;orthogonalLoop=1;jettySize=auto;html=1;exitX=0.25;exitY=0;exitDx=0;exitDy=0;entryX=1;entryY=1;entryDx=0;entryDy=0;" parent="1" source="EHAEfVHOmfp6wVy67W4G-1" target="EHAEfVHOmfp6wVy67W4G-5" edge="1">
          <mxGeometry relative="1" as="geometry" />
        </mxCell>
        <mxCell id="EHAEfVHOmfp6wVy67W4G-91" style="edgeStyle=orthogonalEdgeStyle;rounded=0;orthogonalLoop=1;jettySize=auto;html=1;exitX=1;exitY=0;exitDx=0;exitDy=0;entryX=0.5;entryY=1;entryDx=0;entryDy=0;" parent="1" source="EHAEfVHOmfp6wVy67W4G-1" target="EHAEfVHOmfp6wVy67W4G-2" edge="1">
          <mxGeometry relative="1" as="geometry" />
        </mxCell>
        <mxCell id="nnfrdBHgnbPAEGVWjssQ-5" style="edgeStyle=orthogonalEdgeStyle;curved=1;rounded=0;orthogonalLoop=1;jettySize=auto;html=1;exitX=0.75;exitY=1;exitDx=0;exitDy=0;entryX=0.5;entryY=0;entryDx=0;entryDy=0;" parent="1" source="EHAEfVHOmfp6wVy67W4G-1" target="nnfrdBHgnbPAEGVWjssQ-3" edge="1">
          <mxGeometry relative="1" as="geometry" />
        </mxCell>
        <mxCell id="nnfrdBHgnbPAEGVWjssQ-6" style="edgeStyle=orthogonalEdgeStyle;curved=1;rounded=0;orthogonalLoop=1;jettySize=auto;html=1;exitX=0.5;exitY=1;exitDx=0;exitDy=0;entryX=1;entryY=0;entryDx=0;entryDy=0;" parent="1" source="EHAEfVHOmfp6wVy67W4G-1" target="EHAEfVHOmfp6wVy67W4G-8" edge="1">
          <mxGeometry relative="1" as="geometry" />
        </mxCell>
        <mxCell id="EHAEfVHOmfp6wVy67W4G-1" value="students" style="rounded=0;whiteSpace=wrap;html=1;fillColor=#ffe6cc;strokeColor=#d79b00;" parent="1" vertex="1">
          <mxGeometry x="130" y="290" width="120" height="60" as="geometry" />
        </mxCell>
        <mxCell id="EHAEfVHOmfp6wVy67W4G-77" style="edgeStyle=orthogonalEdgeStyle;rounded=0;orthogonalLoop=1;jettySize=auto;html=1;exitX=1;exitY=0;exitDx=0;exitDy=0;entryX=0.5;entryY=1;entryDx=0;entryDy=0;" parent="1" source="EHAEfVHOmfp6wVy67W4G-2" target="EHAEfVHOmfp6wVy67W4G-3" edge="1">
          <mxGeometry relative="1" as="geometry" />
        </mxCell>
        <mxCell id="EHAEfVHOmfp6wVy67W4G-78" style="edgeStyle=orthogonalEdgeStyle;rounded=0;orthogonalLoop=1;jettySize=auto;html=1;exitX=0;exitY=0;exitDx=0;exitDy=0;entryX=0.5;entryY=1;entryDx=0;entryDy=0;" parent="1" source="EHAEfVHOmfp6wVy67W4G-2" target="EHAEfVHOmfp6wVy67W4G-4" edge="1">
          <mxGeometry relative="1" as="geometry" />
        </mxCell>
        <mxCell id="EHAEfVHOmfp6wVy67W4G-2" value="name" style="ellipse;whiteSpace=wrap;html=1;fillColor=#f9f7ed;strokeColor=#36393d;" parent="1" vertex="1">
          <mxGeometry x="190" y="190" width="110" height="70" as="geometry" />
        </mxCell>
        <mxCell id="EHAEfVHOmfp6wVy67W4G-3" value="second name" style="ellipse;whiteSpace=wrap;html=1;fillColor=#f9f7ed;strokeColor=#36393d;" parent="1" vertex="1">
          <mxGeometry x="240" y="100" width="90" height="60" as="geometry" />
        </mxCell>
        <mxCell id="EHAEfVHOmfp6wVy67W4G-4" value="first name" style="ellipse;whiteSpace=wrap;html=1;fillColor=#f9f7ed;strokeColor=#36393d;" parent="1" vertex="1">
          <mxGeometry x="130" y="110" width="90" height="60" as="geometry" />
        </mxCell>
        <mxCell id="EHAEfVHOmfp6wVy67W4G-5" value="current level" style="ellipse;whiteSpace=wrap;html=1;fillColor=#f9f7ed;strokeColor=#36393d;" parent="1" vertex="1">
          <mxGeometry x="20" y="180" width="100" height="70" as="geometry" />
        </mxCell>
        <mxCell id="EHAEfVHOmfp6wVy67W4G-6" value="Email" style="ellipse;whiteSpace=wrap;html=1;fillColor=#f9f7ed;strokeColor=#36393d;" parent="1" vertex="1">
          <mxGeometry y="260" width="110" height="70" as="geometry" />
        </mxCell>
        <mxCell id="EHAEfVHOmfp6wVy67W4G-7" value="Batch No." style="ellipse;whiteSpace=wrap;html=1;fillColor=#f9f7ed;strokeColor=#36393d;" parent="1" vertex="1">
          <mxGeometry x="10" y="340" width="110" height="70" as="geometry" />
        </mxCell>
        <mxCell id="EHAEfVHOmfp6wVy67W4G-8" value="&lt;u&gt;IndexNo.&lt;/u&gt;" style="ellipse;whiteSpace=wrap;html=1;fillColor=#f9f7ed;strokeColor=#36393d;" parent="1" vertex="1">
          <mxGeometry x="55" y="420" width="110" height="70" as="geometry" />
        </mxCell>
        <mxCell id="EHAEfVHOmfp6wVy67W4G-117" style="edgeStyle=orthogonalEdgeStyle;rounded=0;orthogonalLoop=1;jettySize=auto;html=1;exitX=1;exitY=1;exitDx=0;exitDy=0;entryX=0;entryY=0;entryDx=0;entryDy=0;" parent="1" source="EHAEfVHOmfp6wVy67W4G-9" target="EHAEfVHOmfp6wVy67W4G-44" edge="1">
          <mxGeometry relative="1" as="geometry" />
        </mxCell>
        <mxCell id="EHAEfVHOmfp6wVy67W4G-122" style="edgeStyle=orthogonalEdgeStyle;rounded=0;orthogonalLoop=1;jettySize=auto;html=1;exitX=0;exitY=0;exitDx=0;exitDy=0;entryX=1;entryY=1;entryDx=0;entryDy=0;" parent="1" source="EHAEfVHOmfp6wVy67W4G-9" target="EHAEfVHOmfp6wVy67W4G-2" edge="1">
          <mxGeometry relative="1" as="geometry" />
        </mxCell>
        <mxCell id="EHAEfVHOmfp6wVy67W4G-9" value="has" style="rhombus;whiteSpace=wrap;html=1;fillColor=#d5e8d4;strokeColor=#82b366;" parent="1" vertex="1">
          <mxGeometry x="330" y="300" width="80" height="80" as="geometry" />
        </mxCell>
        <mxCell id="EHAEfVHOmfp6wVy67W4G-86" style="edgeStyle=orthogonalEdgeStyle;rounded=0;orthogonalLoop=1;jettySize=auto;html=1;exitX=1;exitY=1;exitDx=0;exitDy=0;entryX=0.5;entryY=0;entryDx=0;entryDy=0;" parent="1" source="EHAEfVHOmfp6wVy67W4G-10" target="EHAEfVHOmfp6wVy67W4G-13" edge="1">
          <mxGeometry relative="1" as="geometry" />
        </mxCell>
        <mxCell id="EHAEfVHOmfp6wVy67W4G-87" style="edgeStyle=orthogonalEdgeStyle;rounded=0;orthogonalLoop=1;jettySize=auto;html=1;exitX=0.5;exitY=1;exitDx=0;exitDy=0;entryX=0.5;entryY=0;entryDx=0;entryDy=0;" parent="1" source="EHAEfVHOmfp6wVy67W4G-10" target="EHAEfVHOmfp6wVy67W4G-12" edge="1">
          <mxGeometry relative="1" as="geometry" />
        </mxCell>
        <mxCell id="EHAEfVHOmfp6wVy67W4G-88" style="edgeStyle=orthogonalEdgeStyle;rounded=0;orthogonalLoop=1;jettySize=auto;html=1;exitX=0;exitY=0.75;exitDx=0;exitDy=0;entryX=1;entryY=0;entryDx=0;entryDy=0;" parent="1" source="EHAEfVHOmfp6wVy67W4G-10" target="EHAEfVHOmfp6wVy67W4G-11" edge="1">
          <mxGeometry relative="1" as="geometry" />
        </mxCell>
        <mxCell id="EHAEfVHOmfp6wVy67W4G-10" value="user" style="rounded=0;whiteSpace=wrap;html=1;fillColor=#ffe6cc;strokeColor=#d79b00;" parent="1" vertex="1">
          <mxGeometry x="120" y="710" width="120" height="60" as="geometry" />
        </mxCell>
        <mxCell id="EHAEfVHOmfp6wVy67W4G-11" value="Email" style="ellipse;whiteSpace=wrap;html=1;fillColor=#f9f7ed;strokeColor=#36393d;" parent="1" vertex="1">
          <mxGeometry y="800" width="120" height="80" as="geometry" />
        </mxCell>
        <mxCell id="EHAEfVHOmfp6wVy67W4G-12" value="Password" style="ellipse;whiteSpace=wrap;html=1;fillColor=#f9f7ed;strokeColor=#36393d;" parent="1" vertex="1">
          <mxGeometry x="120" y="900" width="120" height="80" as="geometry" />
        </mxCell>
        <mxCell id="EHAEfVHOmfp6wVy67W4G-13" value="&lt;u&gt;User_id&lt;/u&gt;" style="ellipse;whiteSpace=wrap;html=1;fillColor=#f9f7ed;strokeColor=#36393d;" parent="1" vertex="1">
          <mxGeometry x="270" y="780" width="120" height="80" as="geometry" />
        </mxCell>
        <mxCell id="EHAEfVHOmfp6wVy67W4G-115" style="edgeStyle=orthogonalEdgeStyle;rounded=0;orthogonalLoop=1;jettySize=auto;html=1;exitX=1;exitY=0.5;exitDx=0;exitDy=0;entryX=0;entryY=0.25;entryDx=0;entryDy=0;" parent="1" source="EHAEfVHOmfp6wVy67W4G-14" target="EHAEfVHOmfp6wVy67W4G-15" edge="1">
          <mxGeometry relative="1" as="geometry" />
        </mxCell>
        <mxCell id="EHAEfVHOmfp6wVy67W4G-124" style="edgeStyle=orthogonalEdgeStyle;rounded=0;orthogonalLoop=1;jettySize=auto;html=1;exitX=0;exitY=0.5;exitDx=0;exitDy=0;entryX=1;entryY=0.5;entryDx=0;entryDy=0;" parent="1" source="EHAEfVHOmfp6wVy67W4G-14" target="EHAEfVHOmfp6wVy67W4G-2" edge="1">
          <mxGeometry relative="1" as="geometry" />
        </mxCell>
        <mxCell id="EHAEfVHOmfp6wVy67W4G-14" value="belongs" style="rhombus;whiteSpace=wrap;html=1;fillColor=#d5e8d4;strokeColor=#82b366;" parent="1" vertex="1">
          <mxGeometry x="500" y="190" width="80" height="80" as="geometry" />
        </mxCell>
        <mxCell id="EHAEfVHOmfp6wVy67W4G-69" style="edgeStyle=orthogonalEdgeStyle;rounded=0;orthogonalLoop=1;jettySize=auto;html=1;exitX=0;exitY=0;exitDx=0;exitDy=0;entryX=1;entryY=1;entryDx=0;entryDy=0;" parent="1" source="EHAEfVHOmfp6wVy67W4G-15" target="EHAEfVHOmfp6wVy67W4G-16" edge="1">
          <mxGeometry relative="1" as="geometry" />
        </mxCell>
        <mxCell id="EHAEfVHOmfp6wVy67W4G-70" style="edgeStyle=orthogonalEdgeStyle;rounded=0;orthogonalLoop=1;jettySize=auto;html=1;exitX=0.5;exitY=0;exitDx=0;exitDy=0;entryX=0.5;entryY=1;entryDx=0;entryDy=0;" parent="1" source="EHAEfVHOmfp6wVy67W4G-15" target="EHAEfVHOmfp6wVy67W4G-17" edge="1">
          <mxGeometry relative="1" as="geometry" />
        </mxCell>
        <mxCell id="EHAEfVHOmfp6wVy67W4G-92" style="edgeStyle=orthogonalEdgeStyle;rounded=0;orthogonalLoop=1;jettySize=auto;html=1;exitX=1;exitY=0.5;exitDx=0;exitDy=0;entryX=0;entryY=0.5;entryDx=0;entryDy=0;" parent="1" source="EHAEfVHOmfp6wVy67W4G-15" target="EHAEfVHOmfp6wVy67W4G-20" edge="1">
          <mxGeometry relative="1" as="geometry" />
        </mxCell>
        <mxCell id="EHAEfVHOmfp6wVy67W4G-94" style="edgeStyle=orthogonalEdgeStyle;rounded=0;orthogonalLoop=1;jettySize=auto;html=1;exitX=0.75;exitY=1;exitDx=0;exitDy=0;entryX=0;entryY=0;entryDx=0;entryDy=0;" parent="1" source="EHAEfVHOmfp6wVy67W4G-15" target="EHAEfVHOmfp6wVy67W4G-22" edge="1">
          <mxGeometry relative="1" as="geometry" />
        </mxCell>
        <mxCell id="EHAEfVHOmfp6wVy67W4G-15" value="Attendance&amp;nbsp;" style="rounded=0;whiteSpace=wrap;html=1;fillColor=#ffe6cc;strokeColor=#d79b00;" parent="1" vertex="1">
          <mxGeometry x="790" y="250" width="120" height="60" as="geometry" />
        </mxCell>
        <mxCell id="EHAEfVHOmfp6wVy67W4G-16" value="Semester" style="ellipse;whiteSpace=wrap;html=1;fillColor=#f9f7ed;strokeColor=#36393d;" parent="1" vertex="1">
          <mxGeometry x="660" y="70" width="120" height="80" as="geometry" />
        </mxCell>
        <mxCell id="EHAEfVHOmfp6wVy67W4G-17" value="Course code" style="ellipse;whiteSpace=wrap;html=1;fillColor=#f9f7ed;strokeColor=#36393d;" parent="1" vertex="1">
          <mxGeometry x="780" y="40" width="120" height="80" as="geometry" />
        </mxCell>
        <mxCell id="EHAEfVHOmfp6wVy67W4G-18" value="Date" style="ellipse;whiteSpace=wrap;html=1;fillColor=#f9f7ed;strokeColor=#36393d;" parent="1" vertex="1">
          <mxGeometry x="910" y="60" width="120" height="80" as="geometry" />
        </mxCell>
        <mxCell id="EHAEfVHOmfp6wVy67W4G-19" value="Teacher No." style="ellipse;whiteSpace=wrap;html=1;fillColor=#f9f7ed;strokeColor=#36393d;" parent="1" vertex="1">
          <mxGeometry x="990" y="140" width="120" height="80" as="geometry" />
        </mxCell>
        <mxCell id="EHAEfVHOmfp6wVy67W4G-20" value="StudentID" style="ellipse;whiteSpace=wrap;html=1;fillColor=#f9f7ed;strokeColor=#36393d;" parent="1" vertex="1">
          <mxGeometry x="1170" y="210" width="120" height="80" as="geometry" />
        </mxCell>
        <mxCell id="EHAEfVHOmfp6wVy67W4G-21" value="total" style="ellipse;whiteSpace=wrap;html=1;fillColor=#f9f7ed;strokeColor=#36393d;" parent="1" vertex="1">
          <mxGeometry x="1100" y="280" width="120" height="80" as="geometry" />
        </mxCell>
        <mxCell id="EHAEfVHOmfp6wVy67W4G-22" value="percentage" style="ellipse;whiteSpace=wrap;html=1;fillColor=#f9f7ed;strokeColor=#36393d;" parent="1" vertex="1">
          <mxGeometry x="1080" y="375" width="120" height="80" as="geometry" />
        </mxCell>
        <mxCell id="EHAEfVHOmfp6wVy67W4G-23" value="&lt;u&gt;Attendance_id&lt;/u&gt;" style="ellipse;whiteSpace=wrap;html=1;fillColor=#f9f7ed;strokeColor=#36393d;" parent="1" vertex="1">
          <mxGeometry x="980" y="420" width="120" height="80" as="geometry" />
        </mxCell>
        <mxCell id="EHAEfVHOmfp6wVy67W4G-125" style="edgeStyle=orthogonalEdgeStyle;rounded=0;orthogonalLoop=1;jettySize=auto;html=1;exitX=0.5;exitY=0;exitDx=0;exitDy=0;entryX=0.25;entryY=1;entryDx=0;entryDy=0;" parent="1" source="EHAEfVHOmfp6wVy67W4G-24" target="EHAEfVHOmfp6wVy67W4G-15" edge="1">
          <mxGeometry relative="1" as="geometry" />
        </mxCell>
        <mxCell id="EHAEfVHOmfp6wVy67W4G-127" style="edgeStyle=orthogonalEdgeStyle;rounded=0;orthogonalLoop=1;jettySize=auto;html=1;exitX=0.5;exitY=1;exitDx=0;exitDy=0;entryX=0.5;entryY=0;entryDx=0;entryDy=0;" parent="1" source="EHAEfVHOmfp6wVy67W4G-24" target="EHAEfVHOmfp6wVy67W4G-35" edge="1">
          <mxGeometry relative="1" as="geometry" />
        </mxCell>
        <mxCell id="EHAEfVHOmfp6wVy67W4G-128" style="edgeStyle=orthogonalEdgeStyle;rounded=0;orthogonalLoop=1;jettySize=auto;html=1;exitX=0;exitY=0.5;exitDx=0;exitDy=0;entryX=0.5;entryY=0;entryDx=0;entryDy=0;" parent="1" source="EHAEfVHOmfp6wVy67W4G-24" target="EHAEfVHOmfp6wVy67W4G-51" edge="1">
          <mxGeometry relative="1" as="geometry" />
        </mxCell>
        <mxCell id="EHAEfVHOmfp6wVy67W4G-129" style="edgeStyle=orthogonalEdgeStyle;rounded=0;orthogonalLoop=1;jettySize=auto;html=1;exitX=1;exitY=0.5;exitDx=0;exitDy=0;entryX=0.5;entryY=0;entryDx=0;entryDy=0;" parent="1" source="EHAEfVHOmfp6wVy67W4G-24" target="EHAEfVHOmfp6wVy67W4G-52" edge="1">
          <mxGeometry relative="1" as="geometry" />
        </mxCell>
        <mxCell id="EHAEfVHOmfp6wVy67W4G-24" value="take" style="rhombus;whiteSpace=wrap;html=1;fillColor=#d5e8d4;strokeColor=#82b366;" parent="1" vertex="1">
          <mxGeometry x="720" y="530" width="80" height="80" as="geometry" />
        </mxCell>
        <mxCell id="EHAEfVHOmfp6wVy67W4G-130" style="edgeStyle=orthogonalEdgeStyle;rounded=0;orthogonalLoop=1;jettySize=auto;html=1;exitX=0.5;exitY=0;exitDx=0;exitDy=0;entryX=0.5;entryY=1;entryDx=0;entryDy=0;" parent="1" source="EHAEfVHOmfp6wVy67W4G-25" target="EHAEfVHOmfp6wVy67W4G-15" edge="1">
          <mxGeometry relative="1" as="geometry" />
        </mxCell>
        <mxCell id="EHAEfVHOmfp6wVy67W4G-131" style="edgeStyle=orthogonalEdgeStyle;rounded=0;orthogonalLoop=1;jettySize=auto;html=1;exitX=1;exitY=0.5;exitDx=0;exitDy=0;entryX=0;entryY=0;entryDx=0;entryDy=0;" parent="1" source="EHAEfVHOmfp6wVy67W4G-25" target="EHAEfVHOmfp6wVy67W4G-49" edge="1">
          <mxGeometry relative="1" as="geometry" />
        </mxCell>
        <mxCell id="EHAEfVHOmfp6wVy67W4G-25" value="has" style="rhombus;whiteSpace=wrap;html=1;fillColor=#d5e8d4;strokeColor=#82b366;" parent="1" vertex="1">
          <mxGeometry x="920" y="560" width="80" height="80" as="geometry" />
        </mxCell>
        <mxCell id="EHAEfVHOmfp6wVy67W4G-27" value="&lt;u&gt;Subject ID&lt;/u&gt;" style="ellipse;whiteSpace=wrap;html=1;fillColor=#f9f7ed;strokeColor=#36393d;" parent="1" vertex="1">
          <mxGeometry x="1310" y="470" width="110" height="70" as="geometry" />
        </mxCell>
        <mxCell id="EHAEfVHOmfp6wVy67W4G-28" value="Lecture ID" style="ellipse;whiteSpace=wrap;html=1;fillColor=#f9f7ed;strokeColor=#36393d;" parent="1" vertex="1">
          <mxGeometry x="1440" y="530" width="110" height="70" as="geometry" />
        </mxCell>
        <mxCell id="EHAEfVHOmfp6wVy67W4G-29" value="Credits" style="ellipse;whiteSpace=wrap;html=1;fillColor=#f9f7ed;strokeColor=#36393d;" parent="1" vertex="1">
          <mxGeometry x="1540" y="655" width="100" height="70" as="geometry" />
        </mxCell>
        <mxCell id="EHAEfVHOmfp6wVy67W4G-30" value="Student Code" style="ellipse;whiteSpace=wrap;html=1;fillColor=#f9f7ed;strokeColor=#36393d;" parent="1" vertex="1">
          <mxGeometry x="1560" y="750" width="100" height="70" as="geometry" />
        </mxCell>
        <mxCell id="EHAEfVHOmfp6wVy67W4G-31" value="Course" style="ellipse;whiteSpace=wrap;html=1;fillColor=#f9f7ed;strokeColor=#36393d;" parent="1" vertex="1">
          <mxGeometry x="1560" y="820" width="100" height="70" as="geometry" />
        </mxCell>
        <mxCell id="EHAEfVHOmfp6wVy67W4G-32" value="Semester" style="ellipse;whiteSpace=wrap;html=1;fillColor=#f9f7ed;strokeColor=#36393d;" parent="1" vertex="1">
          <mxGeometry x="1230" y="980" width="110" height="60" as="geometry" />
        </mxCell>
        <mxCell id="EHAEfVHOmfp6wVy67W4G-33" value="lectuuer" style="ellipse;whiteSpace=wrap;html=1;fillColor=#f9f7ed;strokeColor=#36393d;" parent="1" vertex="1">
          <mxGeometry x="1330" y="920" width="110" height="70" as="geometry" />
        </mxCell>
        <mxCell id="EHAEfVHOmfp6wVy67W4G-34" value="year" style="ellipse;whiteSpace=wrap;html=1;fillColor=#f9f7ed;strokeColor=#36393d;" parent="1" vertex="1">
          <mxGeometry x="1090" y="960" width="120" height="80" as="geometry" />
        </mxCell>
        <mxCell id="EHAEfVHOmfp6wVy67W4G-107" style="edgeStyle=orthogonalEdgeStyle;rounded=0;orthogonalLoop=1;jettySize=auto;html=1;exitX=0.75;exitY=1;exitDx=0;exitDy=0;entryX=0.5;entryY=0;entryDx=0;entryDy=0;" parent="1" source="EHAEfVHOmfp6wVy67W4G-35" target="EHAEfVHOmfp6wVy67W4G-38" edge="1">
          <mxGeometry relative="1" as="geometry" />
        </mxCell>
        <mxCell id="EHAEfVHOmfp6wVy67W4G-35" value="Lecturer" style="rounded=0;whiteSpace=wrap;html=1;fillColor=#ffe6cc;strokeColor=#d79b00;" parent="1" vertex="1">
          <mxGeometry x="440" y="970" width="120" height="60" as="geometry" />
        </mxCell>
        <mxCell id="EHAEfVHOmfp6wVy67W4G-36" value="Profession" style="ellipse;whiteSpace=wrap;html=1;fillColor=#f9f7ed;strokeColor=#36393d;" parent="1" vertex="1">
          <mxGeometry x="650" y="980" width="120" height="80" as="geometry" />
        </mxCell>
        <mxCell id="EHAEfVHOmfp6wVy67W4G-37" value="&lt;u&gt;lecturer id&lt;/u&gt;" style="ellipse;whiteSpace=wrap;html=1;fillColor=#f9f7ed;strokeColor=#36393d;" parent="1" vertex="1">
          <mxGeometry x="590" y="1080" width="120" height="80" as="geometry" />
        </mxCell>
        <mxCell id="EHAEfVHOmfp6wVy67W4G-38" value="Email" style="ellipse;whiteSpace=wrap;html=1;fillColor=#f9f7ed;strokeColor=#36393d;" parent="1" vertex="1">
          <mxGeometry x="480" y="1150" width="120" height="80" as="geometry" />
        </mxCell>
        <mxCell id="EHAEfVHOmfp6wVy67W4G-109" style="edgeStyle=orthogonalEdgeStyle;rounded=0;orthogonalLoop=1;jettySize=auto;html=1;exitX=1;exitY=1;exitDx=0;exitDy=0;entryX=0.5;entryY=0;entryDx=0;entryDy=0;" parent="1" source="EHAEfVHOmfp6wVy67W4G-39" target="EHAEfVHOmfp6wVy67W4G-41" edge="1">
          <mxGeometry relative="1" as="geometry" />
        </mxCell>
        <mxCell id="EHAEfVHOmfp6wVy67W4G-110" style="edgeStyle=orthogonalEdgeStyle;rounded=0;orthogonalLoop=1;jettySize=auto;html=1;exitX=0;exitY=1;exitDx=0;exitDy=0;entryX=1;entryY=0;entryDx=0;entryDy=0;" parent="1" source="EHAEfVHOmfp6wVy67W4G-39" target="EHAEfVHOmfp6wVy67W4G-40" edge="1">
          <mxGeometry relative="1" as="geometry" />
        </mxCell>
        <mxCell id="EHAEfVHOmfp6wVy67W4G-39" value="name" style="ellipse;whiteSpace=wrap;html=1;fillColor=#f9f7ed;strokeColor=#36393d;" parent="1" vertex="1">
          <mxGeometry x="280" y="1090" width="120" height="80" as="geometry" />
        </mxCell>
        <mxCell id="EHAEfVHOmfp6wVy67W4G-40" value="First name" style="ellipse;whiteSpace=wrap;html=1;fillColor=#f9f7ed;strokeColor=#36393d;" parent="1" vertex="1">
          <mxGeometry x="120" y="1180" width="120" height="80" as="geometry" />
        </mxCell>
        <mxCell id="EHAEfVHOmfp6wVy67W4G-41" value="Last name" style="ellipse;whiteSpace=wrap;html=1;fillColor=#f9f7ed;strokeColor=#36393d;" parent="1" vertex="1">
          <mxGeometry x="320" y="1220" width="120" height="80" as="geometry" />
        </mxCell>
        <mxCell id="EHAEfVHOmfp6wVy67W4G-111" style="edgeStyle=orthogonalEdgeStyle;rounded=0;orthogonalLoop=1;jettySize=auto;html=1;exitX=1;exitY=0.75;exitDx=0;exitDy=0;entryX=0;entryY=0.5;entryDx=0;entryDy=0;" parent="1" source="EHAEfVHOmfp6wVy67W4G-44" target="EHAEfVHOmfp6wVy67W4G-47" edge="1">
          <mxGeometry relative="1" as="geometry" />
        </mxCell>
        <mxCell id="EHAEfVHOmfp6wVy67W4G-112" style="edgeStyle=orthogonalEdgeStyle;rounded=0;orthogonalLoop=1;jettySize=auto;html=1;exitX=0.75;exitY=1;exitDx=0;exitDy=0;entryX=0.5;entryY=0;entryDx=0;entryDy=0;" parent="1" source="EHAEfVHOmfp6wVy67W4G-44" target="EHAEfVHOmfp6wVy67W4G-46" edge="1">
          <mxGeometry relative="1" as="geometry" />
        </mxCell>
        <mxCell id="EHAEfVHOmfp6wVy67W4G-113" style="edgeStyle=orthogonalEdgeStyle;rounded=0;orthogonalLoop=1;jettySize=auto;html=1;exitX=0.25;exitY=1;exitDx=0;exitDy=0;entryX=0.5;entryY=0;entryDx=0;entryDy=0;" parent="1" source="EHAEfVHOmfp6wVy67W4G-44" target="EHAEfVHOmfp6wVy67W4G-45" edge="1">
          <mxGeometry relative="1" as="geometry" />
        </mxCell>
        <mxCell id="EHAEfVHOmfp6wVy67W4G-44" value="MA" style="rounded=0;whiteSpace=wrap;html=1;fillColor=#ffe6cc;strokeColor=#d79b00;" parent="1" vertex="1">
          <mxGeometry x="450" y="410" width="120" height="60" as="geometry" />
        </mxCell>
        <mxCell id="EHAEfVHOmfp6wVy67W4G-45" value="name" style="ellipse;whiteSpace=wrap;html=1;fillColor=#f9f7ed;strokeColor=#36393d;" parent="1" vertex="1">
          <mxGeometry x="380" y="500" width="120" height="80" as="geometry" />
        </mxCell>
        <mxCell id="EHAEfVHOmfp6wVy67W4G-46" value="&lt;u&gt;MA id&lt;/u&gt;" style="ellipse;whiteSpace=wrap;html=1;fillColor=#f9f7ed;strokeColor=#36393d;" parent="1" vertex="1">
          <mxGeometry x="530" y="520" width="120" height="80" as="geometry" />
        </mxCell>
        <mxCell id="EHAEfVHOmfp6wVy67W4G-47" value="RegNo" style="ellipse;whiteSpace=wrap;html=1;fillColor=#f9f7ed;strokeColor=#36393d;" parent="1" vertex="1">
          <mxGeometry x="600" y="420" width="120" height="80" as="geometry" />
        </mxCell>
        <mxCell id="EHAEfVHOmfp6wVy67W4G-85" style="edgeStyle=orthogonalEdgeStyle;rounded=0;orthogonalLoop=1;jettySize=auto;html=1;exitX=0;exitY=0.5;exitDx=0;exitDy=0;entryX=1;entryY=0.25;entryDx=0;entryDy=0;" parent="1" source="EHAEfVHOmfp6wVy67W4G-48" target="EHAEfVHOmfp6wVy67W4G-10" edge="1">
          <mxGeometry relative="1" as="geometry" />
        </mxCell>
        <mxCell id="EHAEfVHOmfp6wVy67W4G-120" style="edgeStyle=orthogonalEdgeStyle;rounded=0;orthogonalLoop=1;jettySize=auto;html=1;exitX=1;exitY=1;exitDx=0;exitDy=0;entryX=0.25;entryY=0;entryDx=0;entryDy=0;" parent="1" source="EHAEfVHOmfp6wVy67W4G-48" target="EHAEfVHOmfp6wVy67W4G-35" edge="1">
          <mxGeometry relative="1" as="geometry" />
        </mxCell>
        <mxCell id="EHAEfVHOmfp6wVy67W4G-121" style="edgeStyle=orthogonalEdgeStyle;rounded=0;orthogonalLoop=1;jettySize=auto;html=1;exitX=0;exitY=0;exitDx=0;exitDy=0;entryX=1;entryY=1;entryDx=0;entryDy=0;" parent="1" source="EHAEfVHOmfp6wVy67W4G-48" target="EHAEfVHOmfp6wVy67W4G-1" edge="1">
          <mxGeometry relative="1" as="geometry">
            <Array as="points">
              <mxPoint x="290" y="610" />
              <mxPoint x="290" y="350" />
            </Array>
          </mxGeometry>
        </mxCell>
        <mxCell id="EHAEfVHOmfp6wVy67W4G-48" value="has" style="rhombus;whiteSpace=wrap;html=1;fillColor=#d5e8d4;strokeColor=#82b366;" parent="1" vertex="1">
          <mxGeometry x="280" y="590" width="80" height="80" as="geometry" />
        </mxCell>
        <mxCell id="EHAEfVHOmfp6wVy67W4G-96" style="edgeStyle=orthogonalEdgeStyle;rounded=0;orthogonalLoop=1;jettySize=auto;html=1;exitX=0.75;exitY=0;exitDx=0;exitDy=0;" parent="1" source="EHAEfVHOmfp6wVy67W4G-49" target="EHAEfVHOmfp6wVy67W4G-27" edge="1">
          <mxGeometry relative="1" as="geometry" />
        </mxCell>
        <mxCell id="EHAEfVHOmfp6wVy67W4G-98" style="edgeStyle=orthogonalEdgeStyle;rounded=0;orthogonalLoop=1;jettySize=auto;html=1;exitX=1;exitY=0.75;exitDx=0;exitDy=0;entryX=0;entryY=0.5;entryDx=0;entryDy=0;" parent="1" source="EHAEfVHOmfp6wVy67W4G-49" target="EHAEfVHOmfp6wVy67W4G-29" edge="1">
          <mxGeometry relative="1" as="geometry" />
        </mxCell>
        <mxCell id="EHAEfVHOmfp6wVy67W4G-99" style="edgeStyle=orthogonalEdgeStyle;rounded=0;orthogonalLoop=1;jettySize=auto;html=1;exitX=1;exitY=1;exitDx=0;exitDy=0;entryX=0;entryY=0.5;entryDx=0;entryDy=0;" parent="1" source="EHAEfVHOmfp6wVy67W4G-49" target="EHAEfVHOmfp6wVy67W4G-30" edge="1">
          <mxGeometry relative="1" as="geometry" />
        </mxCell>
        <mxCell id="EHAEfVHOmfp6wVy67W4G-101" style="edgeStyle=orthogonalEdgeStyle;rounded=0;orthogonalLoop=1;jettySize=auto;html=1;exitX=0.5;exitY=1;exitDx=0;exitDy=0;" parent="1" source="EHAEfVHOmfp6wVy67W4G-49" target="EHAEfVHOmfp6wVy67W4G-33" edge="1">
          <mxGeometry relative="1" as="geometry" />
        </mxCell>
        <mxCell id="EHAEfVHOmfp6wVy67W4G-103" style="edgeStyle=orthogonalEdgeStyle;rounded=0;orthogonalLoop=1;jettySize=auto;html=1;exitX=0.25;exitY=1;exitDx=0;exitDy=0;entryX=0;entryY=0;entryDx=0;entryDy=0;" parent="1" source="EHAEfVHOmfp6wVy67W4G-49" target="EHAEfVHOmfp6wVy67W4G-32" edge="1">
          <mxGeometry relative="1" as="geometry" />
        </mxCell>
        <mxCell id="EHAEfVHOmfp6wVy67W4G-104" style="edgeStyle=orthogonalEdgeStyle;rounded=0;orthogonalLoop=1;jettySize=auto;html=1;exitX=0;exitY=1;exitDx=0;exitDy=0;" parent="1" source="EHAEfVHOmfp6wVy67W4G-49" target="EHAEfVHOmfp6wVy67W4G-34" edge="1">
          <mxGeometry relative="1" as="geometry" />
        </mxCell>
        <mxCell id="EHAEfVHOmfp6wVy67W4G-49" value="Subject" style="rounded=0;whiteSpace=wrap;html=1;fillColor=#ffe6cc;strokeColor=#d79b00;" parent="1" vertex="1">
          <mxGeometry x="1200" y="670" width="120" height="60" as="geometry" />
        </mxCell>
        <mxCell id="EHAEfVHOmfp6wVy67W4G-119" style="edgeStyle=orthogonalEdgeStyle;rounded=0;orthogonalLoop=1;jettySize=auto;html=1;exitX=1;exitY=0.5;exitDx=0;exitDy=0;entryX=0;entryY=1;entryDx=0;entryDy=0;" parent="1" source="EHAEfVHOmfp6wVy67W4G-50" target="EHAEfVHOmfp6wVy67W4G-15" edge="1">
          <mxGeometry relative="1" as="geometry" />
        </mxCell>
        <mxCell id="EHAEfVHOmfp6wVy67W4G-123" style="edgeStyle=orthogonalEdgeStyle;rounded=0;orthogonalLoop=1;jettySize=auto;html=1;exitX=0;exitY=0.5;exitDx=0;exitDy=0;entryX=1;entryY=0;entryDx=0;entryDy=0;" parent="1" source="EHAEfVHOmfp6wVy67W4G-50" target="EHAEfVHOmfp6wVy67W4G-44" edge="1">
          <mxGeometry relative="1" as="geometry" />
        </mxCell>
        <mxCell id="EHAEfVHOmfp6wVy67W4G-50" value="controls" style="rhombus;whiteSpace=wrap;html=1;fillColor=#d5e8d4;strokeColor=#82b366;" parent="1" vertex="1">
          <mxGeometry x="610" y="310" width="80" height="80" as="geometry" />
        </mxCell>
        <mxCell id="EHAEfVHOmfp6wVy67W4G-51" value="date" style="ellipse;whiteSpace=wrap;html=1;fillColor=#f9f7ed;strokeColor=#36393d;" parent="1" vertex="1">
          <mxGeometry x="660" y="615" width="70" height="40" as="geometry" />
        </mxCell>
        <mxCell id="EHAEfVHOmfp6wVy67W4G-52" value="time" style="ellipse;whiteSpace=wrap;html=1;fillColor=#f9f7ed;strokeColor=#36393d;" parent="1" vertex="1">
          <mxGeometry x="800" y="620" width="70" height="40" as="geometry" />
        </mxCell>
        <mxCell id="EHAEfVHOmfp6wVy67W4G-71" style="edgeStyle=orthogonalEdgeStyle;rounded=0;orthogonalLoop=1;jettySize=auto;html=1;exitX=0.75;exitY=0;exitDx=0;exitDy=0;entryX=0.29;entryY=1.018;entryDx=0;entryDy=0;entryPerimeter=0;" parent="1" source="EHAEfVHOmfp6wVy67W4G-15" target="EHAEfVHOmfp6wVy67W4G-18" edge="1">
          <mxGeometry relative="1" as="geometry" />
        </mxCell>
        <mxCell id="EHAEfVHOmfp6wVy67W4G-72" style="edgeStyle=orthogonalEdgeStyle;rounded=0;orthogonalLoop=1;jettySize=auto;html=1;exitX=1;exitY=0;exitDx=0;exitDy=0;entryX=0.011;entryY=0.764;entryDx=0;entryDy=0;entryPerimeter=0;" parent="1" source="EHAEfVHOmfp6wVy67W4G-15" target="EHAEfVHOmfp6wVy67W4G-19" edge="1">
          <mxGeometry relative="1" as="geometry" />
        </mxCell>
        <mxCell id="EHAEfVHOmfp6wVy67W4G-93" style="edgeStyle=orthogonalEdgeStyle;rounded=0;orthogonalLoop=1;jettySize=auto;html=1;exitX=1;exitY=1;exitDx=0;exitDy=0;entryX=0.013;entryY=0.295;entryDx=0;entryDy=0;entryPerimeter=0;" parent="1" source="EHAEfVHOmfp6wVy67W4G-15" target="EHAEfVHOmfp6wVy67W4G-21" edge="1">
          <mxGeometry relative="1" as="geometry" />
        </mxCell>
        <mxCell id="EHAEfVHOmfp6wVy67W4G-95" style="edgeStyle=orthogonalEdgeStyle;rounded=0;orthogonalLoop=1;jettySize=auto;html=1;exitX=0.5;exitY=1;exitDx=0;exitDy=0;entryX=0.333;entryY=0.125;entryDx=0;entryDy=0;entryPerimeter=0;" parent="1" source="EHAEfVHOmfp6wVy67W4G-15" target="EHAEfVHOmfp6wVy67W4G-23" edge="1">
          <mxGeometry relative="1" as="geometry" />
        </mxCell>
        <mxCell id="EHAEfVHOmfp6wVy67W4G-97" style="edgeStyle=orthogonalEdgeStyle;rounded=0;orthogonalLoop=1;jettySize=auto;html=1;exitX=1;exitY=0;exitDx=0;exitDy=0;entryX=0.037;entryY=0.878;entryDx=0;entryDy=0;entryPerimeter=0;" parent="1" source="EHAEfVHOmfp6wVy67W4G-49" target="EHAEfVHOmfp6wVy67W4G-28" edge="1">
          <mxGeometry relative="1" as="geometry" />
        </mxCell>
        <mxCell id="EHAEfVHOmfp6wVy67W4G-100" style="edgeStyle=orthogonalEdgeStyle;rounded=0;orthogonalLoop=1;jettySize=auto;html=1;exitX=0.75;exitY=1;exitDx=0;exitDy=0;entryX=-0.003;entryY=0.706;entryDx=0;entryDy=0;entryPerimeter=0;" parent="1" source="EHAEfVHOmfp6wVy67W4G-49" target="EHAEfVHOmfp6wVy67W4G-31" edge="1">
          <mxGeometry relative="1" as="geometry" />
        </mxCell>
        <mxCell id="EHAEfVHOmfp6wVy67W4G-105" style="edgeStyle=orthogonalEdgeStyle;rounded=0;orthogonalLoop=1;jettySize=auto;html=1;exitX=1;exitY=0.5;exitDx=0;exitDy=0;entryX=0.045;entryY=0.336;entryDx=0;entryDy=0;entryPerimeter=0;" parent="1" source="EHAEfVHOmfp6wVy67W4G-35" target="EHAEfVHOmfp6wVy67W4G-36" edge="1">
          <mxGeometry relative="1" as="geometry" />
        </mxCell>
        <mxCell id="EHAEfVHOmfp6wVy67W4G-106" style="edgeStyle=orthogonalEdgeStyle;rounded=0;orthogonalLoop=1;jettySize=auto;html=1;exitX=1;exitY=1;exitDx=0;exitDy=0;entryX=0.387;entryY=-0.005;entryDx=0;entryDy=0;entryPerimeter=0;" parent="1" source="EHAEfVHOmfp6wVy67W4G-35" target="EHAEfVHOmfp6wVy67W4G-37" edge="1">
          <mxGeometry relative="1" as="geometry" />
        </mxCell>
        <mxCell id="EHAEfVHOmfp6wVy67W4G-108" style="edgeStyle=orthogonalEdgeStyle;rounded=0;orthogonalLoop=1;jettySize=auto;html=1;exitX=0;exitY=1;exitDx=0;exitDy=0;entryX=0.75;entryY=0.125;entryDx=0;entryDy=0;entryPerimeter=0;" parent="1" source="EHAEfVHOmfp6wVy67W4G-35" target="EHAEfVHOmfp6wVy67W4G-39" edge="1">
          <mxGeometry relative="1" as="geometry" />
        </mxCell>
        <mxCell id="nnfrdBHgnbPAEGVWjssQ-3" value="&lt;u&gt;student_ID&lt;/u&gt;" style="ellipse;whiteSpace=wrap;html=1;fillColor=#f9f7ed;strokeColor=#36393d;" parent="1" vertex="1">
          <mxGeometry x="165" y="440" width="115" height="80" as="geometry" />
        </mxCell>
      </root>
    </mxGraphModel>
  </diagram>
</mxfile>
